ffmpeg started on 2025-06-19 at 12:07:23
Report written to "D:\Convert\FFMetrics\reports\ssim_report-6.txt"
Log level: 32
Command line:
ffmpeg -hide_banner -nostdin -i "G:\\\xc0\xed\xe8\xec\xe5\\[\xd2\xee\xef-4]\\Fate\\\xc0\xef\xee\xea\xf0\xe8\xf4\\Fate_Apocrypha_[21]_[AniLibria_TV]_[HDTVRip_720p]_HEVC.mkv" -i "G:\\\xc0\xed\xe8\xec\xe5\\[\xd2\xee\xef-4]\\Fate\\\xc0\xef\xee\xea\xf0\xe8\xf4\\Fate_Apocrypha_[21]_[AniLibria_TV]_[HDTVRip_720p].mkv" -lavfi "[0:v]settb=AVTB,setpts=PTS-STARTPTS,format=pix_fmts=yuv420p10,fps=24000/1001,scale=1280:720:flags=bicubic[main];[1:v]settb=AVTB,setpts=PTS-STARTPTS,format=pix_fmts=yuv420p,fps=24000/1001,scale=1280:720:flags=bicubic[ref];[main][ref]ssim=eof_action=endall:stats_file='D\\:/Convert/FFMetrics/logs/ssim_logfile-6.txt'" -f null -
Input #0, matroska,webm, from 'G:\Аниме\[Топ-4]\Fate\Апокриф\Fate_Apocrypha_[21]_[AniLibria_TV]_[HDTVRip_720p]_HEVC.mkv':
  Metadata:
    ENCODER         : Lavf61.7.100
  Duration: 00:24:00.17, start: -0.021000, bitrate: 742 kb/s
  Stream #0:0(jpn): Video: hevc (Main 10), yuv420p10le(tv, bt709, progressive), 1280x720 [SAR 1:1 DAR 16:9], 23.81 fps, 23.81 tbr, 1k tbn (default)
      Metadata:
        ENCODER         : Lavc61.19.100 libx265
        BPS             : 544013
        DURATION        : 00:24:00.054000000
        NUMBER_OF_FRAMES: 34526
        NUMBER_OF_BYTES : 97926036
        _STATISTICS_WRITING_APP: mkvpropedit v66.0.0 ('Josie') 64-bit
        _STATISTICS_WRITING_DATE_UTC: 2025-06-17 07:25:36
        _STATISTICS_TAGS: BPS DURATION NUMBER_OF_FRAMES NUMBER_OF_BYTES
  Stream #0:1(rus): Audio: aac (LC), 48000 Hz, stereo, fltp (default)
      Metadata:
        title           : Ados Amikiri Anzen Hekomi Silv
        ENCODER         : Lavc61.19.100 aac
        BPS             : 194342
        DURATION        : 00:24:00.149000000
        NUMBER_OF_FRAMES: 67508
        NUMBER_OF_BYTES : 34985258
        _STATISTICS_WRITING_APP: mkvpropedit v66.0.0 ('Josie') 64-bit
        _STATISTICS_WRITING_DATE_UTC: 2025-06-17 07:25:36
        _STATISTICS_TAGS: BPS DURATION NUMBER_OF_FRAMES NUMBER_OF_BYTES
  Stream #0:2(rus): Subtitle: ass (ssa) (default) (forced)
      Metadata:
        title           : Надписи
        BPS             : 485
        DURATION        : 00:00:03.000000000
        NUMBER_OF_FRAMES: 2
        NUMBER_OF_BYTES : 182
        _STATISTICS_WRITING_APP: mkvpropedit v66.0.0 ('Josie') 64-bit
        _STATISTICS_WRITING_DATE_UTC: 2025-06-17 07:25:36
        _STATISTICS_TAGS: BPS DURATION NUMBER_OF_FRAMES NUMBER_OF_BYTES
  Stream #0:3(rus): Subtitle: ass (ssa)
      Metadata:
        title           : Полные
        BPS             : 103
        DURATION        : 00:23:45.250000000
        NUMBER_OF_FRAMES: 233
        NUMBER_OF_BYTES : 18392
        _STATISTICS_WRITING_APP: mkvpropedit v66.0.0 ('Josie') 64-bit
        _STATISTICS_WRITING_DATE_UTC: 2025-06-17 07:25:36
        _STATISTICS_TAGS: BPS DURATION NUMBER_OF_FRAMES NUMBER_OF_BYTES
Input #1, matroska,webm, from 'G:\Аниме\[Топ-4]\Fate\Апокриф\Fate_Apocrypha_[21]_[AniLibria_TV]_[HDTVRip_720p].mkv':
  Metadata:
    encoder         : libebml v1.3.0 + libmatroska v1.4.1
    creation_time   : 2017-12-04T18:07:29.000000Z
  Duration: 00:24:00.15, start: 0.000000, bitrate: 2510 kb/s
  Stream #1:0: Video: h264 (Main), yuv420p(tv, bt709, progressive), 1280x720, SAR 1:1 DAR 16:9, 23.81 fps, 23.81 tbr, 1k tbn (default)
      Metadata:
        BPS             : 2095460
        BPS-eng         : 2095460
        DURATION        : 00:24:00.060000000
        DURATION-eng    : 00:24:00.060000000
        NUMBER_OF_FRAMES: 34526
        NUMBER_OF_FRAMES-eng: 34526
        NUMBER_OF_BYTES : 377198564
        NUMBER_OF_BYTES-eng: 377198564
        _STATISTICS_WRITING_APP: mkvmerge v7.3.0 ('Nouages') 64bit built on Oct 22 2014 18:53:34
        _STATISTICS_WRITING_APP-eng: mkvmerge v7.3.0 ('Nouages') 64bit built on Oct 22 2014 18:53:34
        _STATISTICS_WRITING_DATE_UTC: 2017-12-04 18:07:29
        _STATISTICS_WRITING_DATE_UTC-eng: 2017-12-04 18:07:29
        _STATISTICS_TAGS: BPS DURATION NUMBER_OF_FRAMES NUMBER_OF_BYTES
        _STATISTICS_TAGS-eng: BPS DURATION NUMBER_OF_FRAMES NUMBER_OF_BYTES
  Stream #1:1(rus): Audio: aac (LC), 48000 Hz, stereo, fltp (default)
      Metadata:
        title           : Ados Amikiri Anzen Hekomi Silv
        BPS             : 192092
        BPS-eng         : 192092
        DURATION        : 00:24:00.149000000
        DURATION-eng    : 00:24:00.149000000
        NUMBER_OF_FRAMES: 67507
        NUMBER_OF_FRAMES-eng: 67507
        NUMBER_OF_BYTES : 34580198
        NUMBER_OF_BYTES-eng: 34580198
        _STATISTICS_WRITING_APP: mkvmerge v7.3.0 ('Nouages') 64bit built on Oct 22 2014 18:53:34
        _STATISTICS_WRITING_APP-eng: mkvmerge v7.3.0 ('Nouages') 64bit built on Oct 22 2014 18:53:34
        _STATISTICS_WRITING_DATE_UTC: 2017-12-04 18:07:29
        _STATISTICS_WRITING_DATE_UTC-eng: 2017-12-04 18:07:29
        _STATISTICS_TAGS: BPS DURATION NUMBER_OF_FRAMES NUMBER_OF_BYTES
        _STATISTICS_TAGS-eng: BPS DURATION NUMBER_OF_FRAMES NUMBER_OF_BYTES
  Stream #1:2(jpn): Audio: aac (LC), 48000 Hz, stereo, fltp
      Metadata:
        title           : Оригинал
        BPS             : 217681
        BPS-eng         : 217681
        DURATION        : 00:24:00.106000000
        DURATION-eng    : 00:24:00.106000000
        NUMBER_OF_FRAMES: 67505
        NUMBER_OF_FRAMES-eng: 67505
        NUMBER_OF_BYTES : 39185509
        NUMBER_OF_BYTES-eng: 39185509
        _STATISTICS_WRITING_APP: mkvmerge v7.3.0 ('Nouages') 64bit built on Oct 22 2014 18:53:34
        _STATISTICS_WRITING_APP-eng: mkvmerge v7.3.0 ('Nouages') 64bit built on Oct 22 2014 18:53:34
        _STATISTICS_WRITING_DATE_UTC: 2017-12-04 18:07:29
        _STATISTICS_WRITING_DATE_UTC-eng: 2017-12-04 18:07:29
        _STATISTICS_TAGS: BPS DURATION NUMBER_OF_FRAMES NUMBER_OF_BYTES
        _STATISTICS_TAGS-eng: BPS DURATION NUMBER_OF_FRAMES NUMBER_OF_BYTES
  Stream #1:3(rus): Subtitle: ass (ssa) (default) (forced)
      Metadata:
        title           : Надписи
        BPS             : 485
        BPS-eng         : 485
        DURATION        : 00:00:03.000000000
        DURATION-eng    : 00:00:03.000000000
        NUMBER_OF_FRAMES: 2
        NUMBER_OF_FRAMES-eng: 2
        NUMBER_OF_BYTES : 182
        NUMBER_OF_BYTES-eng: 182
        _STATISTICS_WRITING_APP: mkvmerge v7.3.0 ('Nouages') 64bit built on Oct 22 2014 18:53:34
        _STATISTICS_WRITING_APP-eng: mkvmerge v7.3.0 ('Nouages') 64bit built on Oct 22 2014 18:53:34
        _STATISTICS_WRITING_DATE_UTC: 2017-12-04 18:07:29
        _STATISTICS_WRITING_DATE_UTC-eng: 2017-12-04 18:07:29
        _STATISTICS_TAGS: BPS DURATION NUMBER_OF_FRAMES NUMBER_OF_BYTES
        _STATISTICS_TAGS-eng: BPS DURATION NUMBER_OF_FRAMES NUMBER_OF_BYTES
  Stream #1:4(rus): Subtitle: ass (ssa)
      Metadata:
        title           : Полные
        BPS             : 103
        BPS-eng         : 103
        DURATION        : 00:23:45.250000000
        DURATION-eng    : 00:23:45.250000000
        NUMBER_OF_FRAMES: 233
        NUMBER_OF_FRAMES-eng: 233
        NUMBER_OF_BYTES : 18392
        NUMBER_OF_BYTES-eng: 18392
        _STATISTICS_WRITING_APP: mkvmerge v7.3.0 ('Nouages') 64bit built on Oct 22 2014 18:53:34
        _STATISTICS_WRITING_APP-eng: mkvmerge v7.3.0 ('Nouages') 64bit built on Oct 22 2014 18:53:34
        _STATISTICS_WRITING_DATE_UTC: 2017-12-04 18:07:29
        _STATISTICS_WRITING_DATE_UTC-eng: 2017-12-04 18:07:29
        _STATISTICS_TAGS: BPS DURATION NUMBER_OF_FRAMES NUMBER_OF_BYTES
        _STATISTICS_TAGS-eng: BPS DURATION NUMBER_OF_FRAMES NUMBER_OF_BYTES
  Stream #1:5: Attachment: ttf
      Metadata:
        filename        : ALBR.ttf
        mimetype        : application/x-truetype-font
  Stream #1:6: Attachment: ttf
      Metadata:
        filename        : 9511(1).ttf
        mimetype        : application/x-truetype-font
Stream mapping:
  Stream #0:0 (hevc) -> settb:default
  Stream #1:0 (h264) -> settb:default
  ssim:default -> Stream #0:0 (wrapped_avframe)
  Stream #0:1 -> #0:1 (aac (native) -> pcm_s16le (native))
Output #0, null, to 'pipe:':
  Metadata:
    encoder         : Lavf61.7.100
  Stream #0:0: Video: wrapped_avframe, yuv420p10le(tv, bt709, progressive), 1280x720 [SAR 1:1 DAR 16:9], q=2-31, 200 kb/s, 23.98 fps, 23.98 tbn
      Metadata:
        encoder         : Lavc61.19.100 wrapped_avframe
  Stream #0:1(rus): Audio: pcm_s16le, 48000 Hz, stereo, s16, 1536 kb/s (default)
      Metadata:
        title           : Ados Amikiri Anzen Hekomi Silv
        _STATISTICS_TAGS: BPS DURATION NUMBER_OF_FRAMES NUMBER_OF_BYTES
        BPS             : 194342
        DURATION        : 00:24:00.149000000
        NUMBER_OF_FRAMES: 67508
        NUMBER_OF_BYTES : 34985258
        _STATISTICS_WRITING_APP: mkvpropedit v66.0.0 ('Josie') 64-bit
        _STATISTICS_WRITING_DATE_UTC: 2025-06-17 07:25:36
        encoder         : Lavc61.19.100 pcm_s16le
frame=  508 fps=0.0 q=-0.0 size=N/A time=00:00:21.18 bitrate=N/A speed=41.5x    frame= 1032 fps=1002 q=-0.0 size=N/A time=00:00:43.04 bitrate=N/A speed=41.8x    frame= 1574 fps=1022 q=-0.0 size=N/A time=00:01:05.64 bitrate=N/A speed=42.6x    frame= 2143 fps=1038 q=-0.0 size=N/A time=00:01:29.38 bitrate=N/A speed=43.3x    frame= 2525 fps=977 q=-0.0 size=N/A time=00:01:45.31 bitrate=N/A speed=40.8x    frame= 2960 fps=957 q=-0.0 size=N/A time=00:02:03.45 bitrate=N/A speed=39.9x    frame= 3348 fps=929 q=-0.0 size=N/A time=00:02:19.63 bitrate=N/A speed=38.7x    frame= 3790 fps=918 q=-0.0 size=N/A time=00:02:38.07 bitrate=N/A speed=38.3x    frame= 4130 fps=891 q=-0.0 size=N/A time=00:02:52.25 bitrate=N/A speed=37.2x    frame= 4581 fps=888 q=-0.0 size=N/A time=00:03:11.06 bitrate=N/A speed=  37x    frame= 5014 fps=885 q=-0.0 size=N/A time=00:03:29.12 bitrate=N/A speed=36.9x    frame= 5460 fps=881 q=-0.0 size=N/A time=00:03:47.72 bitrate=N/A speed=36.8x    frame= 6011 fps=897 q=-0.0 size=N/A time=00:04:10.70 bitrate=N/A speed=37.4x    frame= 6491 fps=899 q=-0.0 size=N/A time=00:04:30.72 bitrate=N/A speed=37.5x    frame= 6920 fps=895 q=-0.0 size=N/A time=00:04:48.62 bitrate=N/A speed=37.3x    frame= 7171 fps=869 q=-0.0 size=N/A time=00:04:59.09 bitrate=N/A speed=36.2x    frame= 7533 fps=859 q=-0.0 size=N/A time=00:05:14.18 bitrate=N/A speed=35.8x    frame= 7992 fps=861 q=-0.0 size=N/A time=00:05:33.33 bitrate=N/A speed=35.9x    frame= 8492 fps=866 q=-0.0 size=N/A time=00:05:54.18 bitrate=N/A speed=36.1x    frame= 8905 fps=863 q=-0.0 size=N/A time=00:06:11.41 bitrate=N/A speed=  36x    frame= 9277 fps=857 q=-0.0 size=N/A time=00:06:26.96 bitrate=N/A speed=35.7x    frame= 9726 fps=857 q=-0.0 size=N/A time=00:06:45.65 bitrate=N/A speed=35.8x    frame=10140 fps=855 q=-0.0 size=N/A time=00:07:02.92 bitrate=N/A speed=35.7x    frame=10729 fps=867 q=-0.0 size=N/A time=00:07:27.48 bitrate=N/A speed=36.1x    frame=11212 fps=870 q=-0.0 size=N/A time=00:07:47.63 bitrate=N/A speed=36.3x    frame=11688 fps=872 q=-0.0 size=N/A time=00:08:07.48 bitrate=N/A speed=36.4x    frame=12203 fps=876 q=-0.0 size=N/A time=00:08:28.96 bitrate=N/A speed=36.5x    frame=12710 fps=880 q=-0.0 size=N/A time=00:08:50.11 bitrate=N/A speed=36.7x    frame=13255 fps=887 q=-0.0 size=N/A time=00:09:12.84 bitrate=N/A speed=  37x    frame=13731 fps=887 q=-0.0 size=N/A time=00:09:32.69 bitrate=N/A speed=  37x    frame=14159 fps=886 q=-0.0 size=N/A time=00:09:50.54 bitrate=N/A speed=36.9x    frame=14601 fps=885 q=-0.0 size=N/A time=00:10:08.98 bitrate=N/A speed=36.9x    frame=15112 fps=888 q=-0.0 size=N/A time=00:10:30.29 bitrate=N/A speed=37.1x    frame=15620 fps=891 q=-0.0 size=N/A time=00:10:51.48 bitrate=N/A speed=37.2x    frame=16119 fps=893 q=-0.0 size=N/A time=00:11:12.29 bitrate=N/A speed=37.3x    frame=16656 fps=897 q=-0.0 size=N/A time=00:11:34.69 bitrate=N/A speed=37.4x    frame=17202 fps=902 q=-0.0 size=N/A time=00:11:57.46 bitrate=N/A speed=37.6x    frame=17738 fps=905 q=-0.0 size=N/A time=00:12:19.82 bitrate=N/A speed=37.8x    frame=18235 fps=906 q=-0.0 size=N/A time=00:12:40.55 bitrate=N/A speed=37.8x    frame=18782 fps=910 q=-0.0 size=N/A time=00:13:03.36 bitrate=N/A speed=  38x    frame=19383 fps=917 q=-0.0 size=N/A time=00:13:28.43 bitrate=N/A speed=38.2x    frame=20046 fps=925 q=-0.0 size=N/A time=00:13:56.08 bitrate=N/A speed=38.6x    frame=20460 fps=923 q=-0.0 size=N/A time=00:14:13.35 bitrate=N/A speed=38.5x    frame=20805 fps=917 q=-0.0 size=N/A time=00:14:27.74 bitrate=N/A speed=38.3x    frame=21279 fps=917 q=-0.0 size=N/A time=00:14:47.51 bitrate=N/A speed=38.2x    frame=21778 fps=918 q=-0.0 size=N/A time=00:15:08.32 bitrate=N/A speed=38.3x    frame=22173 fps=915 q=-0.0 size=N/A time=00:15:24.79 bitrate=N/A speed=38.2x    frame=22684 fps=916 q=-0.0 size=N/A time=00:15:46.11 bitrate=N/A speed=38.2x    frame=22981 fps=910 q=-0.0 size=N/A time=00:15:58.49 bitrate=N/A speed=37.9x    frame=23411 fps=908 q=-0.0 size=N/A time=00:16:16.43 bitrate=N/A speed=37.9x    frame=23874 fps=908 q=-0.0 size=N/A time=00:16:35.74 bitrate=N/A speed=37.9x    frame=24490 fps=913 q=-0.0 size=N/A time=00:17:01.43 bitrate=N/A speed=38.1x    frame=25090 fps=918 q=-0.0 size=N/A time=00:17:26.46 bitrate=N/A speed=38.3x    frame=25662 fps=922 q=-0.0 size=N/A time=00:17:50.31 bitrate=N/A speed=38.4x    frame=26212 fps=924 q=-0.0 size=N/A time=00:18:13.25 bitrate=N/A speed=38.6x    frame=26771 fps=927 q=-0.0 size=N/A time=00:18:36.57 bitrate=N/A speed=38.7x    frame=27257 fps=927 q=-0.0 size=N/A time=00:18:56.84 bitrate=N/A speed=38.7x    frame=27761 fps=928 q=-0.0 size=N/A time=00:19:17.86 bitrate=N/A speed=38.7x    frame=28304 fps=930 q=-0.0 size=N/A time=00:19:40.51 bitrate=N/A speed=38.8x    frame=28831 fps=932 q=-0.0 size=N/A time=00:20:02.49 bitrate=N/A speed=38.9x    frame=29380 fps=934 q=-0.0 size=N/A time=00:20:25.39 bitrate=N/A speed=  39x    frame=29906 fps=935 q=-0.0 size=N/A time=00:20:47.32 bitrate=N/A speed=  39x    frame=30407 fps=936 q=-0.0 size=N/A time=00:21:08.22 bitrate=N/A speed=  39x    frame=30756 fps=932 q=-0.0 size=N/A time=00:21:22.78 bitrate=N/A speed=38.9x    frame=31116 fps=928 q=-0.0 size=N/A time=00:21:37.79 bitrate=N/A speed=38.7x    frame=31625 fps=929 q=-0.0 size=N/A time=00:21:59.02 bitrate=N/A speed=38.8x    frame=32238 fps=933 q=-0.0 size=N/A time=00:22:24.59 bitrate=N/A speed=38.9x    frame=32676 fps=932 q=-0.0 size=N/A time=00:22:42.86 bitrate=N/A speed=38.9x    frame=33097 fps=930 q=-0.0 size=N/A time=00:23:00.42 bitrate=N/A speed=38.8x    frame=33631 fps=932 q=-0.0 size=N/A time=00:23:22.69 bitrate=N/A speed=38.9x    frame=34089 fps=931 q=-0.0 size=N/A time=00:23:41.79 bitrate=N/A speed=38.8x    [Parsed_ssim_10 @ 0000024e411fba40] SSIM Y:0.989765 (19.899276) U:0.990969 (20.442605) V:0.991734 (20.827069) All:0.990294 (20.129629)
[out#0/null @ 0000024e40887a00] video:14836KiB audio:270032KiB subtitle:0KiB other streams:0KiB global headers:0KiB muxing overhead: unknown
frame=34527 fps=933 q=-0.0 Lsize=N/A time=00:24:00.06 bitrate=N/A speed=38.9x    
